#tb 0: 1/25
#media_type 0: video
#codec_id 0: rawvideo
#dimensions 0: 832x480
#sar 0: 0/1
0,          0,          0,        1,   599040, 0x7ea9597c
0,          1,          1,        1,   599040, 0x3e7365e4
0,          2,          2,        1,   599040, 0x4a9149c9
0,          3,          3,        1,   599040, 0x3b1f6549
0,          4,          4,        1,   599040, 0x3e35f616
0,          5,          5,        1,   599040, 0x843c7951
0,          6,          6,        1,   599040, 0xa2adb299
0,          7,          7,        1,   599040, 0xb9dda682
0,          8,          8,        1,   599040, 0x9a5e7355
0,          9,          9,        1,   599040, 0xc4bafa8c
0,         10,         10,        1,   599040, 0xc4ec160e
0,         11,         11,        1,   599040, 0x538421a3
0,         12,         12,        1,   599040, 0xb294a96e
0,         13,         13,        1,   599040, 0x9bb217df
0,         14,         14,        1,   599040, 0xbe70c870
0,         15,         15,        1,   599040, 0xa4e319a8
0,         16,         16,        1,   599040, 0x3a4c702d
0,         17,         17,        1,   599040, 0x9f790906
0,         18,         18,        1,   599040, 0xbbfdb8d6
0,         19,         19,        1,   599040, 0x0965c0ed
0,         20,         20,        1,   599040, 0x6993e1f1
0,         21,         21,        1,   599040, 0xc1cc1df9
0,         22,         22,        1,   599040, 0xe570c390
0,         23,         23,        1,   599040, 0x422f6fd7
0,         24,         24,        1,   599040, 0x9c89298c
0,         25,         25,        1,   599040, 0x5ece4193
0,         26,         26,        1,   599040, 0x142a4f2f
0,         27,         27,        1,   599040, 0xa5356c63
0,         28,         28,        1,   599040, 0x8458a378
0,         29,         29,        1,   599040, 0xc149ed56
